<svg xmlns="http://www.w3.org/2000/svg" id="Layer_1" style="enable-background:new 0 0 200 540" viewBox="0 0 200 540">
    <style>
        .st0{fill:#333333;stroke:#000000;stroke-width:2;stroke-miterlimit:10;}
        .st1{fill:#5C5042;}
        .st2{opacity:0.3;fill:#111111;}
        .st3{fill:#80785E;}
        .st4{opacity:0.2;fill:#191919;}
        .st5{fill:none;stroke:#000000;stroke-width:2;stroke-miterlimit:10;}
        .st6{fill:#5C5042;stroke:#000000;stroke-width:3;stroke-miterlimit:10;}
        .st7{fill:#ADA282;}
    </style>
    <circle cx="42.4" cy="175.8" r="36.1" class="st0"/>
    <circle cx="157.6" cy="175.8" r="36.1" class="st0"/>
    <circle cx="42.4" cy="376.8" r="36.1" class="st0"/>
    <circle cx="157.6" cy="376.8" r="36.1" class="st0"/>
    <path d="M.8 155.6h198.4v240H.8z" class="st1 dark"/>
    <path d="M15.4 155.6h169.2v238.5H15.4z" class="st2"/>
    <path d="M201.2 397.6H-1.2v-244h202.4v244zm-198.4-4h194.4v-236H2.8v236z"/>
    <path d="M170.7 213.4H29.3l11-89.8h119.4z" class="st1 dark"/>
    <path d="M43.5 126.2l-7.8 69.1h21.6l2.6-69.1z" class="st3 midlight"/>
    <path d="M62.8 126.2v19.7h7.8v7.7h18.6v-9.2l-4.1-.2v-18z" class="st3 midlight"/>
    <path d="M61.1 195.3v-23.5h101.1l4.1 23.5z" class="st3 midlight"/>
    <path d="M162.9 166.6h-47.4v-40.4h41.2z" class="st3 midlight"/>
    <path d="M76.8 167.3h46.3V212H76.8z" class="st4"/>
    <path d="M85.3 124h29.4v43.3H85.3z" class="st4"/>
    <path d="M63.5 138.1h73v31.3h-73z" class="st5"/>
    <path d="M70.2 144.3h59.6v19.8H70.2z" class="st5"/>
    <path d="M30.5 199.4h138.9v14.1H30.5z" class="st4"/>
    <path d="M172.4 214.9H27.6l11.3-92.8H161l11.4 92.8zm-141.4-3h138l-10.6-86.8H41.6L31 211.9z"/>
    <path d="M26.2 210.9h147.7v206.9H26.2z" class="st6 dark"/>
    <path d="M31.6 219h20.3v188.4H31.6z" class="st3 midlight"/>
    <path d="M60.4 219h108v143h-108z" class="st3 midlight"/>
    <path d="M60.4 371.3h108v36.1h-108z" class="st3 midlight"/>
    <path d="M50.3 149.2H55v42.1h-4.7z" class="st7 light"/>
    <path d="M50.3 129.7h7.3v8.4h-7.3z" class="st7 light"/>
    <path d="M139.2 153.6h7.1v11.1h-7.1z" class="st7 light"/>
    <path d="M160 223h4.7v42.1H160z" class="st7 light"/>
    <path d="M33.7 221.1h16.6v15.2H33.7z" class="st7 light"/>
    <path d="M33.7 241.4h16.6v4.8H33.7z" class="st7 light"/>
    <path d="M62.4 400.8h42.1v4.7H62.4z" class="st7 light"/>
</svg>